# File created by Blade
# Date/Time:  Wed Apr 08 17:31:45 2015
#---------------------------------------------------------
:version 1.10
:name HOM
:units
  mass 1.0
  length 1.000000
  angle deg
:documentation
     Acclaim Skeleton File
:root
   axis xyz
   order TX TY TZ RX RY RZ
   position 0.000000 0.000000 0.000000
   orientation 0 0 0
:bonedata
   begin
      id 1
      name Spine_dum
      direction 0.000000 1.000000 0.000000
      length 5.893853
      axis 0.0 0.0 0.0 xyz
   end
   begin
      id 2
      name LeftUpLeg_dum
      direction 1.000000 0.000000 0.000000
      length 3.697939
      axis 0.0 0.0 0.0 xyz
   end
   begin
      id 3
      name RightUpLeg_dum
      direction -1.000000 0.000000 0.000000
      length 3.697939
      axis 0.0 0.0 0.0 xyz
   end
   begin
      id 4
      name Spine
      direction 0.000000 1.000000 0.000000
      length 0.000000
      axis 0.0 0.0 0.0 xyz
      dof rx ry rz
   end
   begin
      id 5
      name Spine_dum1
      direction 0.000000 1.000000 0.000000
      length 16.447146
      axis 0.0 0.0 0.0 xyz
   end
   begin
      id 6
      name Spine_dum2
      direction 0.000000 1.000000 0.000000
      length 10.900383
      axis 0.0 0.0 0.0 xyz
   end
   begin
      id 7
      name Spine_dum3
      direction 0.000000 1.000000 0.000000
      length 10.900383
      axis 0.0 0.0 0.0 xyz
   end
   begin
      id 8
      name Head
      direction 0.000000 1.000000 0.000000
      length 4.527550
      axis 0.0 0.0 0.0 xyz
      dof rx ry rz
   end
   begin
      id 9
      name LeftShoulder
      direction 1.000000 0.000000 0.000000
      length 8.219464
      axis 0.0 0.0 -90.0 xyz
      dof rx ry rz
   end
   begin
      id 10
      name LeftArm
      direction 1.000000 0.000000 0.000000
      length 11.094937
      axis 0.0 0.0 -90.0 xyz
      dof rx ry rz
   end
   begin
      id 11
      name LeftForeArm
      direction 1.000000 0.000000 0.000000
      length 9.103875
      axis 0.0 0.0 -90.0 xyz
      dof ry rz rx
   end
   begin
      id 12
      name LeftHand
      direction 0.000000 0.000000 0.000000
      length 0.000000
      axis 0.0 0.0 -90.0 xyz
      dof rx ry rz
   end
   begin
      id 13
      name LeftHand_dum1
      direction 0.000000 0.000000 0.000000
      length 0.000000
      axis 0.0 0.0 -90.0 xyz
   end
   begin
      id 14
      name LeftHand_dum2
      direction 1.000000 0.000000 0.000000
      length 3.937000
      axis 0.0 0.0 -90.0 xyz
   end
   begin
      id 15
      name LeftHandThumb1
      direction 0.000000 0.000000 1.000000
      length 3.937000
      axis 0.0 0.0 -90.0 xyz
      dof rx rz ry
   end
   begin
      id 16
      name RightShoulder
      direction -1.000000 0.000000 0.000000
      length 8.219464
      axis 0.0 0.0 90.0 xyz
      dof rx ry rz
   end
   begin
      id 17
      name RightArm
      direction -1.000000 0.000000 0.000000
      length 11.094937
      axis 0.0 0.0 90.0 xyz
      dof rx ry rz
   end
   begin
      id 18
      name RightForeArm
      direction -1.000000 0.000000 0.000000
      length 9.103875
      axis 0.0 0.0 90.0 xyz
      dof ry rz rx
   end
   begin
      id 19
      name RightHand
      direction 0.000000 0.000000 0.000000
      length 0.000000
      axis 0.0 0.0 90.0 xyz
      dof rx ry rz
   end
   begin
      id 20
      name RightHand_dum1
      direction 0.000000 0.000000 0.000000
      length 0.000000
      axis 0.0 0.0 90.0 xyz
   end
   begin
      id 21
      name RightHand_dum2
      direction -1.000000 0.000000 0.000000
      length 3.937000
      axis 0.0 0.0 90.0 xyz
   end
   begin
      id 22
      name RightHandThumb1
      direction 0.000000 0.000000 1.000000
      length 3.937000
      axis 0.0 0.0 90.0 xyz
      dof rx rz ry
   end
   begin
      id 23
      name LeftUpLeg
      direction 0.000000 -1.000000 0.000000
      length 16.181467
      axis 0.0 0.0 0.0 xyz
      dof rx ry rz
   end
   begin
      id 24
      name LeftLeg
      direction 0.000000 -1.000000 0.000000
      length 16.501392
      axis 0.0 0.0 0.0 xyz
      dof rx ry rz
   end
   begin
      id 25
      name LeftFoot
      direction 0.000000 -0.258819 0.965926
      length 6.408245
      axis 15.0 0.0 0.0 xyz
      dof rx ry rz
   end
   begin
      id 26
      name LeftToeBase
      direction 0.000000 0.000000 1.000000
      length 2.952750
      axis 0.0 0.0 0.0 xyz
      dof rx ry rz
   end
   begin
      id 27
      name RightUpLeg
      direction 0.000000 -1.000000 0.000000
      length 16.181467
      axis 0.0 0.0 0.0 xyz
      dof rx ry rz
   end
   begin
      id 28
      name RightLeg
      direction 0.000000 -1.000000 0.000000
      length 16.501392
      axis 0.0 0.0 0.0 xyz
      dof rx ry rz
   end
   begin
      id 29
      name RightFoot
      direction 0.000000 -0.258819 0.965926
      length 6.408245
      axis 15.0 0.0 0.0 xyz
      dof rx ry rz
   end
   begin
      id 30
      name RightToeBase
      direction 0.000000 0.000000 1.000000
      length 2.952750
      axis 0.0 0.0 0.0 xyz
      dof rx ry rz
   end
:hierarchy
   begin
      root Spine_dum LeftUpLeg_dum RightUpLeg_dum
      Spine_dum Spine
      LeftUpLeg_dum LeftUpLeg
      RightUpLeg_dum RightUpLeg
      Spine Spine_dum1 Spine_dum2 Spine_dum3
      Spine_dum1 Head
      Spine_dum2 LeftShoulder
      Spine_dum3 RightShoulder
      LeftShoulder LeftArm
      LeftArm LeftForeArm
      LeftForeArm LeftHand
      LeftHand LeftHand_dum1 LeftHand_dum2
      LeftHand_dum1 LeftHandThumb1
      RightShoulder RightArm
      RightArm RightForeArm
      RightForeArm RightHand
      RightHand RightHand_dum1 RightHand_dum2
      RightHand_dum1 RightHandThumb1
      LeftUpLeg LeftLeg
      LeftLeg LeftFoot
      LeftFoot LeftToeBase
      RightUpLeg RightLeg
      RightLeg RightFoot
      RightFoot RightToeBase
   end

# File created by Blade
# Date/Time:  Wed Apr 08 17:31:39 2015
# Frame Rate: 120.000 fps
#------------------------------------------------------
:FULLY-SPECIFIED
:DEGREES
221
root 2.051254 33.762960 1.221684 -295.600272 -86.983197 219.565304
Spine 113.481625 0.973702 2.034675
Head -2.315093 11.098864 0.041958
LeftShoulder -2.766725 10.739716 30.215619
LeftArm 26.352030 9.959699 -71.260946
LeftForeArm 12.770261 -0.000000 36.874830
LeftHand -11.001404 -0.000000 -8.549061
LeftHandThumb1 -26.253704 0.000000 33.147579
RightShoulder -11.840917 -39.426130 -20.000546
RightArm 65.465922 4.123591 45.002574
RightForeArm 5.194719 -0.000000 36.790522
RightHand 3.075262 -0.000000 4.432754
RightHandThumb1 -24.326973 -0.000000 -32.862282
LeftUpLeg 56.052652 -1.623106 18.585165
LeftLeg 46.114078 -0.000000 -0.000000
LeftFoot -28.229607 5.089039 -5.864282
LeftToeBase 3.670084 -0.000000 -0.000000
RightUpLeg 60.449466 3.985568 -22.120800
RightLeg 35.962686 -0.000000 -0.000000
RightFoot -25.124244 8.993618 7.429119
RightToeBase -2.034224 -0.000000 0.000000
222
root 2.025506 33.711183 1.184049 -298.565880 -86.949028 220.738689
Spine 115.461488 0.832307 2.006273
Head -2.169941 11.069321 0.022425
LeftShoulder -2.697185 10.653708 30.424814
LeftArm 26.653877 9.794038 -70.611578
LeftForeArm 12.486990 -0.000000 37.238552
LeftHand -11.021273 -0.000000 -8.620696
LeftHandThumb1 -26.253704 0.000000 33.147579
RightShoulder -11.557477 -39.187941 -20.519234
RightArm 65.595458 4.598407 44.844459
RightForeArm 5.397494 -0.000000 36.609786
RightHand 3.326527 -0.000000 4.366016
RightHandThumb1 -24.326973 -0.000000 -32.862282
LeftUpLeg 57.523203 -2.317318 18.669661
LeftLeg 46.563824 -0.000000 -0.000000
LeftFoot -28.465995 5.020973 -5.879424
LeftToeBase 3.605992 -0.000000 -0.000000
RightUpLeg 61.954055 4.527576 -22.098706
RightLeg 36.453851 -0.000000 -0.000000
RightFoot -25.424121 8.960949 7.225959
RightToeBase -1.729819 -0.000000 0.000000
223
root 2.000741 33.661592 1.146821 -301.025908 -86.907685 221.336065
Spine 117.500415 0.702682 1.999445
Head -2.019668 11.008547 0.000120
LeftShoulder -2.595292 10.579970 30.641652
LeftArm 26.939178 9.577079 -69.989857
LeftForeArm 12.092634 -0.000000 37.624721
LeftHand -10.954511 -0.000000 -8.783392
LeftHandThumb1 -26.253704 0.000000 33.147579
RightShoulder -11.270034 -39.000534 -21.054239
RightArm 65.725674 5.095456 44.715112
RightForeArm 5.470176 -0.000000 36.467716
RightHand 3.641652 -0.000000 4.127610
RightHandThumb1 -24.326973 -0.000000 -32.862282
LeftUpLeg 59.086386 -3.018542 18.735073
LeftLeg 46.972096 -0.000000 -0.000000
LeftFoot -28.682589 4.966003 -5.874228
LeftToeBase 3.573662 -0.000000 -0.000000
RightUpLeg 63.497716 5.108104 -22.098188
RightLeg 36.958770 -0.000000 -0.000000
RightFoot -25.699370 8.962577 7.006330
RightToeBase -1.517767 -0.000000 0.000000
224
root 1.983459 33.609891 1.127754 -305.719071 -86.987306 224.194006
Spine 119.535111 0.556099 1.800809
Head -1.884407 10.903025 -0.004887
LeftShoulder -2.500648 10.461116 30.873331
LeftArm 27.183283 9.350109 -69.383753
LeftForeArm 11.702300 -0.000000 37.981214
LeftHand -10.815314 -0.000000 -8.861801
LeftHandThumb1 -26.253704 0.000000 33.147579
RightShoulder -10.934531 -38.733851 -21.627956
RightArm 65.756735 5.537329 44.566406
RightForeArm 5.407260 0.000000 36.448397
RightHand 3.683843 -0.000000 3.613006
RightHandThumb1 -24.326973 -0.000000 -32.862282
LeftUpLeg 60.594419 -3.717655 18.493419
LeftLeg 47.403347 -0.000000 -0.000000
LeftFoot -28.905884 5.039480 -5.830498
LeftToeBase 3.582238 -0.000000 -0.000000
RightUpLeg 65.037152 5.701249 -22.198472
RightLeg 37.454791 -0.000000 -0.000000
RightFoot -25.964588 8.956450 6.935174
RightToeBase -1.279278 -0.000000 0.000000
225
root 1.959753 33.567269 1.090812 -308.323915 -86.938610 224.766404
Spine 121.721483 0.437776 1.786978
Head -1.738185 10.818449 0.015951
LeftShoulder -2.400464 10.451068 31.092305
LeftArm 27.519596 9.179383 -68.685700
LeftForeArm 11.388016 -0.000000 38.387645
LeftHand -10.733409 0.000000 -8.830152
LeftHandThumb1 -26.253704 0.000000 33.147579
RightShoulder -10.672280 -38.589705 -22.127702
RightArm 65.910721 6.102929 44.490562
RightForeArm 5.634285 -0.000000 36.322508
RightHand 3.906957 0.000000 3.733045
RightHandThumb1 -24.326973 -0.000000 -32.862282
LeftUpLeg 62.384407 -4.474296 18.536773
LeftLeg 47.679389 -0.000000 -0.000000
LeftFoot -29.122468 4.986067 -5.742105
LeftToeBase 3.681706 -0.000000 -0.000000
RightUpLeg 66.759897 6.354547 -22.160525
RightLeg 37.910670 -0.000000 -0.000000
RightFoot -26.177237 8.907889 6.774709
RightToeBase -1.073523 -0.000000 0.000000
226
root 1.941574 33.519412 1.051679 -310.431122 -86.885615 224.861471
Spine 123.880908 0.339227 1.801725
Head -1.592318 10.708211 0.052852
LeftShoulder -2.259889 10.360253 31.346462
LeftArm 27.777614 8.837108 -68.153139
LeftForeArm 11.186590 -0.000000 38.751226
LeftHand -10.583233 0.000000 -9.117775
LeftHandThumb1 -26.253704 0.000000 33.147579
RightShoulder -10.372974 -38.379876 -22.661802
RightArm 65.954144 6.558039 44.343827
RightForeArm 5.602228 -0.000000 36.278748
RightHand 4.031546 0.000000 3.255436
RightHandThumb1 -24.326973 -0.000000 -32.862282
LeftUpLeg 64.131205 -5.238265 18.463496
LeftLeg 48.022624 -0.000000 -0.000000
LeftFoot -29.338379 4.902257 -5.803857
LeftToeBase 3.747442 -0.000000 -0.000000
RightUpLeg 68.427786 7.004313 -22.138911
RightLeg 38.402642 -0.000000 -0.000000
RightFoot -26.433017 8.837628 6.565491
RightToeBase -0.835586 -0.000000 0.000000
227
root 1.929556 33.481423 1.005759 -311.026294 -86.838746 223.278957
Spine 126.202724 0.309234 1.869032
Head -1.473047 10.615274 0.070122
LeftShoulder -2.131299 10.283571 31.601908
LeftArm 28.068535 8.549828 -67.564478
LeftForeArm 10.949011 0.000000 39.087353
LeftHand -10.480309 0.000000 -9.134131
LeftHandThumb1 -26.253704 0.000000 33.147579
RightShoulder -10.099888 -38.219986 -23.196535
RightArm 66.038254 7.056504 44.261226
RightForeArm 5.754369 0.000000 36.280978
RightHand 4.042154 0.000000 2.934295
RightHandThumb1 -24.326973 -0.000000 -32.862282
LeftUpLeg 66.033638 -5.969215 18.325201
LeftLeg 48.394767 -0.000000 -0.000000
LeftFoot -29.416485 4.995694 -5.883880
LeftToeBase 3.714101 -0.000000 -0.000000
RightUpLeg 70.235828 7.777478 -21.832615
RightLeg 38.895380 -0.000000 -0.000000
RightFoot -26.641551 8.643256 6.475694
RightToeBase -0.561412 -0.000000 0.000000
